<mxfile host="app.diagrams.net" modified="2023-01-11T11:18:30.005Z" agent="5.0 (Macintosh)" etag="y7auj0QnbK4jlBMjTz7h" version="20.8.3" type="github">
  <diagram name="Page-1" id="03018318-947c-dd8e-b7a3-06fadd420f32">
    <mxGraphModel dx="2603" dy="1307" grid="1" gridSize="10" guides="1" tooltips="1" connect="1" arrows="1" fold="1" page="1" pageScale="1" pageWidth="1100" pageHeight="850" background="none" math="0" shadow="0">
      <root>
        <mxCell id="0" />
        <mxCell id="1" parent="0" />
        <mxCell id="677b7b8949515195-1" value="" style="whiteSpace=wrap;html=1;rounded=0;shadow=0;labelBackgroundColor=none;strokeColor=#000000;strokeWidth=1;fillColor=none;fontFamily=Verdana;fontSize=12;fontColor=#000000;align=center;comic=1;" parent="1" vertex="1">
          <mxGeometry x="20" y="20" width="1060" height="810" as="geometry" />
        </mxCell>
        <mxCell id="677b7b8949515195-2" value="LOGO" style="whiteSpace=wrap;html=1;rounded=0;shadow=0;labelBackgroundColor=none;strokeWidth=1;fontFamily=Verdana;fontSize=28;align=center;comic=1;" parent="1" vertex="1">
          <mxGeometry x="40" y="30" width="120" height="110" as="geometry" />
        </mxCell>
        <mxCell id="677b7b8949515195-9" value="" style="line;strokeWidth=1;html=1;rounded=0;shadow=0;labelBackgroundColor=none;fillColor=none;fontFamily=Verdana;fontSize=14;fontColor=#000000;align=center;comic=1;" parent="1" vertex="1">
          <mxGeometry x="20" y="140" width="1060" height="10" as="geometry" />
        </mxCell>
        <mxCell id="677b7b8949515195-10" value="" style="whiteSpace=wrap;html=1;rounded=0;shadow=0;labelBackgroundColor=none;strokeWidth=1;fillColor=none;fontFamily=Verdana;fontSize=12;align=center;comic=1;" parent="1" vertex="1">
          <mxGeometry x="30" y="160" width="1040" height="50" as="geometry" />
        </mxCell>
        <mxCell id="677b7b8949515195-11" value="Home" style="text;html=1;points=[];align=left;verticalAlign=top;spacingTop=-4;fontSize=14;fontFamily=Verdana" parent="1" vertex="1">
          <mxGeometry x="330" y="175" width="60" height="20" as="geometry" />
        </mxCell>
        <mxCell id="677b7b8949515195-12" value="Quiz1" style="text;html=1;points=[];align=left;verticalAlign=top;spacingTop=-4;fontSize=14;fontFamily=Verdana" parent="1" vertex="1">
          <mxGeometry x="477" y="175" width="60" height="20" as="geometry" />
        </mxCell>
        <mxCell id="677b7b8949515195-13" value="Quiz2" style="text;html=1;points=[];align=left;verticalAlign=top;spacingTop=-4;fontSize=14;fontFamily=Verdana" parent="1" vertex="1">
          <mxGeometry x="623" y="175" width="60" height="20" as="geometry" />
        </mxCell>
        <mxCell id="yf07e1yAb_ye40fB_3Hu-1" value="Quiz3" style="text;html=1;points=[];align=left;verticalAlign=top;spacingTop=-4;fontSize=14;fontFamily=Verdana" vertex="1" parent="1">
          <mxGeometry x="750" y="175" width="60" height="20" as="geometry" />
        </mxCell>
        <mxCell id="yf07e1yAb_ye40fB_3Hu-2" value="" style="rounded=0;whiteSpace=wrap;html=1;" vertex="1" parent="1">
          <mxGeometry x="450" y="160" width="120" height="50" as="geometry" />
        </mxCell>
        <mxCell id="yf07e1yAb_ye40fB_3Hu-3" value="&lt;div&gt;Quiz1&lt;/div&gt;&lt;div&gt;&lt;br&gt;&lt;/div&gt;" style="text;html=1;points=[];align=left;verticalAlign=top;spacingTop=-4;fontSize=14;fontFamily=Verdana" vertex="1" parent="1">
          <mxGeometry x="490" y="175" width="60" height="20" as="geometry" />
        </mxCell>
        <mxCell id="yf07e1yAb_ye40fB_3Hu-4" value="" style="rounded=0;whiteSpace=wrap;html=1;" vertex="1" parent="1">
          <mxGeometry x="250" y="250" width="600" height="480" as="geometry" />
        </mxCell>
        <mxCell id="yf07e1yAb_ye40fB_3Hu-5" value="&lt;font style=&quot;font-size: 50px;&quot;&gt;Vraag 2:&lt;/font&gt;" style="text;html=1;points=[];align=center;verticalAlign=top;spacingTop=-4;fontSize=14;fontFamily=Verdana" vertex="1" parent="1">
          <mxGeometry x="425" y="260" width="250" height="50" as="geometry" />
        </mxCell>
        <mxCell id="yf07e1yAb_ye40fB_3Hu-6" value="&lt;font style=&quot;font-size: 30px;&quot;&gt;Dit is een goede vraag over een film&lt;br&gt;&lt;/font&gt;" style="text;html=1;points=[];align=center;verticalAlign=top;spacingTop=-4;fontSize=14;fontFamily=Verdana" vertex="1" parent="1">
          <mxGeometry x="425" y="340" width="250" height="50" as="geometry" />
        </mxCell>
        <mxCell id="yf07e1yAb_ye40fB_3Hu-7" value="" style="rounded=0;whiteSpace=wrap;html=1;fontSize=30;" vertex="1" parent="1">
          <mxGeometry x="290" y="427.5" width="230" height="125" as="geometry" />
        </mxCell>
        <mxCell id="yf07e1yAb_ye40fB_3Hu-8" value="" style="rounded=0;whiteSpace=wrap;html=1;fontSize=30;" vertex="1" parent="1">
          <mxGeometry x="580" y="427.5" width="230" height="125" as="geometry" />
        </mxCell>
        <mxCell id="yf07e1yAb_ye40fB_3Hu-9" value="" style="rounded=0;whiteSpace=wrap;html=1;fontSize=30;" vertex="1" parent="1">
          <mxGeometry x="580" y="580" width="230" height="125" as="geometry" />
        </mxCell>
        <mxCell id="yf07e1yAb_ye40fB_3Hu-10" value="" style="rounded=0;whiteSpace=wrap;html=1;fontSize=30;" vertex="1" parent="1">
          <mxGeometry x="290" y="580" width="230" height="125" as="geometry" />
        </mxCell>
        <mxCell id="yf07e1yAb_ye40fB_3Hu-11" value="&lt;font style=&quot;font-size: 30px;&quot;&gt;A&lt;/font&gt;" style="text;html=1;points=[];align=center;verticalAlign=top;spacingTop=-4;fontSize=14;fontFamily=Verdana" vertex="1" parent="1">
          <mxGeometry x="280" y="465" width="250" height="50" as="geometry" />
        </mxCell>
        <mxCell id="yf07e1yAb_ye40fB_3Hu-12" value="&lt;font style=&quot;font-size: 30px;&quot;&gt;B&lt;/font&gt;" style="text;html=1;points=[];align=center;verticalAlign=top;spacingTop=-4;fontSize=14;fontFamily=Verdana" vertex="1" parent="1">
          <mxGeometry x="570" y="465" width="250" height="50" as="geometry" />
        </mxCell>
        <mxCell id="yf07e1yAb_ye40fB_3Hu-13" value="&lt;font style=&quot;font-size: 30px;&quot;&gt;D&lt;/font&gt;" style="text;html=1;points=[];align=center;verticalAlign=top;spacingTop=-4;fontSize=14;fontFamily=Verdana" vertex="1" parent="1">
          <mxGeometry x="570" y="617.5" width="250" height="50" as="geometry" />
        </mxCell>
        <mxCell id="yf07e1yAb_ye40fB_3Hu-14" value="&lt;font style=&quot;font-size: 30px;&quot;&gt;C&lt;/font&gt;" style="text;html=1;points=[];align=center;verticalAlign=top;spacingTop=-4;fontSize=14;fontFamily=Verdana" vertex="1" parent="1">
          <mxGeometry x="280" y="617.5" width="250" height="50" as="geometry" />
        </mxCell>
      </root>
    </mxGraphModel>
  </diagram>
</mxfile>
